# Wavefront OBJ exported by MilkShape 3D

mtllib SigmaSaber.mtl

v 0.585938 -1.671875 2.246094
v -0.117188 -1.671875 2.246094
v 0.234375 -2.285156 2.246094
v -0.468750 -2.285156 2.246094
v -0.117188 -2.894531 2.246094
v 0.585938 -1.671875 2.246094
v 0.585938 -1.671875 1.710938
v -0.117188 -1.671875 2.246094
v -0.117188 -1.671875 1.710938
v -0.468750 -2.285156 2.246094
v -0.468750 -2.285156 1.710938
v -0.117188 -1.671875 1.710938
v 0.585938 -1.671875 1.710938
v 0.234375 -2.285156 1.496094
v 0.941406 -2.285156 1.710938
v 0.585938 -2.894531 1.710938
v 0.585938 -1.671875 2.246094
v 0.234375 -2.285156 2.246094
v 0.941406 -2.285156 2.246094
v 0.585938 -2.894531 2.246094
v 0.941406 -2.285156 2.246094
v 0.941406 -2.285156 1.710938
v 0.585938 -1.671875 2.246094
v 0.585938 -1.671875 1.710938
v 0.585938 -2.894531 2.246094
v 0.585938 -2.894531 1.710938
v 0.941406 -2.285156 2.246094
v 0.941406 -2.285156 1.710938
v 0.234375 -2.285156 2.246094
v -0.117188 -2.894531 2.246094
v 0.585938 -2.894531 2.246094
v -0.117188 -2.894531 2.246094
v -0.117188 -2.894531 1.710938
v 0.585938 -2.894531 2.246094
v 0.585938 -2.894531 1.710938
v 0.585938 -2.894531 1.710938
v -0.117188 -2.894531 1.710938
v 0.234375 -2.285156 1.496094
v -0.468750 -2.285156 1.710938
v -0.117188 -1.671875 1.710938
v -0.468750 -2.285156 2.246094
v -0.468750 -2.285156 1.710938
v -0.117188 -2.894531 2.246094
v -0.117188 -2.894531 1.710938
v -0.148438 -2.285156 -2.015625
v -0.089844 -2.285156 -2.871094
v 0.039063 -2.617188 -2.015625
v 0.070313 -2.566406 -2.871094
v 0.425781 -2.617188 -2.015625
v 0.398438 -2.566406 -2.871094
v 0.617188 -2.285156 -2.015625
v 0.558594 -2.285156 -2.871094
v 0.425781 -1.949219 -2.015625
v 0.398438 -2.000000 -2.871094
v 0.039063 -1.949219 -2.015625
v 0.070313 -2.000000 -2.871094
v -0.148438 -2.285156 -2.015625
v -0.089844 -2.285156 -2.871094
v 0.070313 -2.000000 -2.871094
v 0.398438 -2.000000 -2.871094
v 0.234375 -2.285156 -3.054688
v 0.558594 -2.285156 -2.871094
v 0.398438 -2.566406 -2.871094
v -0.089844 -2.285156 -2.871094
v 0.234375 -2.285156 -3.054688
v 0.070313 -2.566406 -2.871094
v 0.398438 -2.566406 -2.871094
v -0.148438 -2.285156 -2.015625
v 0.039063 -2.617188 -2.015625
v 0.039063 -1.949219 -2.015625
v 0.425781 -2.617188 -2.015625
v 0.617188 -2.285156 -2.015625
v 0.425781 -1.949219 -2.015625
v 0.039063 -1.949219 -2.015625
v 0.617188 -2.285156 -2.015625
v 0.234375 -2.285156 -3.054688
v -0.089844 -2.285156 -2.871094
v 0.070313 -2.000000 -2.871094
v 0.015625 -2.660156 1.671875
v 0.082031 -2.542969 -2.070313
v 0.449219 -2.660156 1.671875
v 0.382813 -2.542969 -2.070313
v 0.667969 -2.285156 1.671875
v 0.531250 -2.285156 -2.070313
v 0.449219 -1.906250 1.671875
v 0.382813 -2.023438 -2.070313
v 0.015625 -1.906250 1.671875
v 0.082031 -2.023438 -2.070313
v -0.199219 -2.285156 1.671875
v -0.062500 -2.285156 -2.070313
v 0.015625 -2.660156 1.671875
v 0.082031 -2.542969 -2.070313
v 5.011719 -7.082031 2.207031
v 5.011719 -7.082031 28.429688
v 0.226563 -2.296875 28.429688
v 5.011719 -7.082031 2.207031
v 0.226563 -2.296875 28.429688
v 0.226563 -2.296875 2.207031
v 0.226563 -2.296875 2.207031
v 0.226563 -2.296875 28.429688
v -4.554688 2.484375 28.429688
v 0.226563 -2.296875 2.207031
v -4.554688 2.484375 28.429688
v -4.554688 2.484375 2.207031
v 0.226563 -9.062500 2.207031
v 0.226563 -9.062500 28.429688
v 0.226563 -2.296875 28.429688
v 0.226563 -9.062500 2.207031
v 0.226563 -2.296875 28.429688
v 0.226563 -2.296875 2.207031
v 0.226563 -2.296875 2.207031
v 0.226563 -2.296875 28.429688
v 0.226563 4.468750 28.429688
v 0.226563 -2.296875 2.207031
v 0.226563 4.468750 28.429688
v 0.226563 4.468750 2.207031
v -4.554688 -7.082031 2.207031
v -4.554688 -7.082031 28.429688
v 0.226563 -2.296875 28.429688
v -4.554688 -7.082031 2.207031
v 0.226563 -2.296875 28.429688
v 0.226563 -2.296875 2.207031
v 0.226563 -2.296875 2.207031
v 0.226563 -2.296875 28.429688
v 5.011719 2.484375 28.429688
v 0.226563 -2.296875 2.207031
v 5.011719 2.484375 28.429688
v 5.011719 2.484375 2.207031
v -6.535156 -2.296875 2.207031
v -6.535156 -2.296875 28.429688
v 0.226563 -2.296875 28.429688
v -6.535156 -2.296875 2.207031
v 0.226563 -2.296875 28.429688
v 0.226563 -2.296875 2.207031
v 0.226563 -2.296875 2.207031
v 0.226563 -2.296875 28.429688
v 6.996094 -2.296875 28.429688
v 0.226563 -2.296875 2.207031
v 6.996094 -2.296875 28.429688
v 6.996094 -2.296875 2.207031
v -1.316406 -3.855469 3.089844
v -1.960938 -2.308594 3.089844
v 0.226563 -2.308594 2.332031
v -1.316406 -0.757813 3.089844
v 0.226563 -0.117188 3.089844
v -2.566406 0.488281 5.050781
v 0.226563 1.648438 5.050781
v -1.316406 -3.855469 3.089844
v -2.566406 -5.105469 5.050781
v -1.960938 -2.308594 3.089844
v -3.726563 -2.308594 5.050781
v -1.316406 -0.757813 3.089844
v -2.566406 0.488281 5.050781
v 0.226563 -0.117188 3.089844
v 0.226563 1.648438 5.050781
v 1.777344 -0.757813 3.089844
v 3.027344 0.488281 5.050781
v 2.417969 -2.308594 3.089844
v 4.187500 -2.308594 5.050781
v 1.777344 -3.855469 3.089844
v 3.027344 -5.105469 5.050781
v 0.226563 -4.500000 3.089844
v 0.226563 -6.265625 5.050781
v -1.316406 -3.855469 3.089844
v -2.566406 -5.105469 5.050781
v 1.777344 -0.757813 3.089844
v 2.417969 -2.308594 3.089844
v 0.226563 -2.308594 2.332031
v 1.777344 -3.855469 3.089844
v 0.226563 -4.500000 3.089844
v 0.226563 -2.308594 2.332031
v 0.226563 -4.500000 3.089844
v -1.316406 -3.855469 3.089844
v 0.226563 -2.308594 2.332031
v 0.226563 -0.117188 3.089844
v 1.777344 -0.757813 3.089844
v -1.058594 -3.597656 3.296875
v -1.589844 -2.308594 3.296875
v 0.226563 -2.308594 2.332031
v -1.058594 -1.019531 3.296875
v 0.226563 -0.484375 3.296875
v -2.097656 0.015625 5.789063
v 0.226563 0.980469 5.789063
v -1.058594 -3.597656 3.296875
v -2.097656 -4.636719 5.789063
v -1.589844 -2.308594 3.296875
v -3.062500 -2.308594 5.789063
v -1.058594 -1.019531 3.296875
v -2.097656 0.015625 5.789063
v 0.226563 -0.484375 3.296875
v 0.226563 0.980469 5.789063
v 1.515625 -1.019531 3.296875
v 2.554688 0.015625 5.789063
v 2.050781 -2.308594 3.296875
v 3.519531 -2.308594 5.789063
v 1.515625 -3.597656 3.296875
v 2.554688 -4.636719 5.789063
v 0.226563 -4.128906 3.296875
v 0.226563 -5.601563 5.789063
v -1.058594 -3.597656 3.296875
v -2.097656 -4.636719 5.789063
v 1.515625 -1.019531 3.296875
v 2.050781 -2.308594 3.296875
v 0.226563 -2.308594 2.332031
v 1.515625 -3.597656 3.296875
v 0.226563 -4.128906 3.296875
v 0.226563 -2.308594 2.332031
v 0.226563 -4.128906 3.296875
v -1.058594 -3.597656 3.296875
v 0.226563 -2.308594 2.332031
v 0.226563 -0.484375 3.296875
v 1.515625 -1.019531 3.296875
# 212 vertices

vt 0.309723 0.502808
vt 0.295990 0.459808
vt 0.323456 0.459808
vt 0.337189 0.502777
vt 0.394867 0.490570
vt 0.371460 0.490570
vt 0.394867 0.435364
vt 0.371460 0.435364
vt 0.332062 0.524109
vt 0.371460 0.557648
vt 0.371460 0.612854
vt 0.350952 0.459808
vt 0.394867 0.557648
vt 0.394867 0.612854
vt 0.155090 0.387482
vt 0.155090 0.310364
vt 0.164551 0.387482
vt 0.164551 0.310364
vt 0.171906 0.387482
vt 0.171906 0.310364
vt 0.147736 0.387482
vt 0.147736 0.310364
vt 0.159821 0.282318
vt 0.135437 0.002136
vt 0.135437 0.321625
vt 0.144440 0.002136
vt 0.144440 0.321625
vt 0.123016 0.002136
vt 0.123016 0.321625
vt 0.111115 0.002136
vt 0.111115 0.321625
vt 0.097961 0.003540
vt 0.097961 0.911591
vt 0.485443 0.911591
vt 0.485443 0.003540
vt 0.689270 0.666748
vt 0.756867 0.751099
vt 0.526093 0.751099
vt 0.689270 0.835449
vt 0.526093 0.870392
vt 0.852448 0.919800
vt 0.526093 0.989685
vt 0.852448 0.582398
vt 0.987640 0.751099
vt 0.526093 0.631805
vt 0.526093 0.512512
# 46 texture coordinates

vn 0.000000 0.000000 1.000000
vn 0.000000 1.000000 0.000000
vn -0.328158 0.944623 0.000000
vn -0.656317 0.754485 0.000000
vn -0.867562 0.497328 0.000000
vn 0.000000 0.330618 -0.943765
vn 0.145348 0.251860 -0.956787
vn 0.197242 0.113383 -0.973776
vn 0.290741 -0.000525 -0.956802
vn 0.286648 -0.167211 -0.943331
vn 0.865175 0.501470 0.000000
vn 0.863779 -0.503870 0.000000
vn 0.000000 -1.000000 0.000000
vn 0.000000 -0.332504 -0.943102
vn -0.146112 -0.252896 -0.956397
vn -0.198288 -0.114748 -0.973404
vn -0.292219 -0.000522 -0.956351
vn -0.288203 0.165212 -0.943210
vn -0.866186 -0.499722 0.000000
vn -0.869208 -0.490849 -0.059535
vn -0.868289 -0.492385 -0.060270
vn -0.657287 -0.750562 -0.068052
vn -0.328146 -0.942182 -0.067916
vn 0.326809 -0.942754 -0.066409
vn 0.654993 -0.752702 -0.066511
vn 0.979950 -0.187868 -0.066367
vn 0.980678 0.184114 -0.066124
vn 0.657940 0.750133 -0.066447
vn 0.329823 0.941702 -0.066442
vn -0.330448 0.941375 -0.067952
vn -0.660209 0.747992 -0.068064
vn -0.870965 0.487648 -0.060164
vn -0.870343 0.488825 -0.059613
vn 0.000000 0.541341 -0.840803
vn 0.246919 0.420146 -0.873217
vn 0.346018 0.196060 -0.917514
vn 0.492748 -0.001783 -0.870170
vn 0.474426 -0.270159 -0.837815
vn -0.474426 -0.270160 -0.837815
vn -0.246693 -0.424713 -0.871069
vn 0.000000 -0.546623 -0.837379
vn -0.474898 0.266725 -0.838648
vn 0.000000 -0.999510 -0.031300
vn 0.325915 -0.944737 -0.035368
vn 0.653355 -0.756218 -0.035523
vn 0.981132 -0.190018 -0.035675
vn 0.981812 0.186503 -0.035533
vn 0.656315 0.753652 -0.035480
vn 0.329192 0.943600 -0.035391
vn -0.329223 0.943589 -0.035391
vn -0.661448 0.749141 -0.035693
vn -0.982950 0.180400 -0.035574
vn -0.981406 -0.188640 -0.035451
vn -0.869569 -0.492823 -0.031231
vn -0.871868 -0.488773 -0.030777
vn -0.707107 -0.707107 0.000000
vn -1.000000 0.000000 0.000000
vn -0.707395 0.706818 0.000000
vn -0.324339 -0.135142 -0.936238
vn -0.327342 -0.000169 -0.944906
vn -0.266920 0.110264 -0.957390
vn -0.262483 0.407077 -0.874866
vn -0.248818 0.599173 -0.760974
vn -0.294914 0.710144 -0.639314
vn -0.709038 -0.295433 -0.640300
vn -0.738920 -0.102342 -0.665976
vn -0.739164 0.102372 -0.665700
vn -0.710007 0.294803 -0.639517
vn 0.293475 0.710424 -0.639665
vn 0.450532 0.594930 -0.665642
vn 0.594826 0.450484 -0.665768
vn 0.738839 0.101981 -0.666121
vn 0.738604 -0.101988 -0.666380
vn 0.594604 -0.450135 -0.666202
vn 0.450528 -0.594595 -0.665943
vn 0.101546 -0.739062 -0.665940
vn -0.103056 -0.738965 -0.665816
vn -0.295592 -0.709614 -0.639588
vn 0.323883 0.133795 -0.936589
vn 0.326821 -0.000167 -0.945086
vn 0.266606 -0.110473 -0.957453
vn 0.231318 -0.231071 -0.945039
vn 0.134596 -0.323847 -0.936486
vn -0.135265 -0.323818 -0.936400
vn 0.133795 0.323883 -0.936589
vn -0.460580 -0.189815 -0.867085
vn -0.469109 -0.000000 -0.883140
vn -0.388008 0.160093 -0.907645
vn -0.349704 0.515953 -0.781984
vn -0.298649 0.718059 -0.628650
vn -0.337339 0.811361 -0.477384
vn -0.812050 -0.334663 -0.478096
vn -0.855166 -0.118151 -0.504710
vn -0.855131 0.117753 -0.504862
vn -0.811283 0.335566 -0.478764
vn -0.811196 0.336748 -0.478082
vn 0.336973 0.811687 -0.477089
vn 0.521669 0.688799 -0.503406
vn 0.688336 0.521928 -0.503771
vn 0.855457 0.118374 -0.504163
vn 0.855433 -0.118183 -0.504249
vn 0.687930 -0.521993 -0.504258
vn 0.520852 -0.688560 -0.504578
vn 0.117852 -0.855196 -0.504728
vn -0.118048 -0.855020 -0.504982
vn -0.335974 -0.811042 -0.478886
vn 0.458974 0.190544 -0.867776
vn 0.467540 -0.000000 -0.883972
vn 0.386410 -0.160445 -0.908265
vn 0.330288 -0.331255 -0.883844
vn 0.189509 -0.459837 -0.867546
vn -0.190064 -0.459787 -0.867451
vn 0.190544 0.458974 -0.867777
# 113 normals

g submesh0
usemtl Handle
s 1
f 1/1/1 2/2/1 3/3/1
f 4/1/1 3/3/1 2/2/1
f 3/3/1 4/1/1 5/4/1
f 6/5/2 7/6/2 8/7/3
f 9/8/4 8/7/3 7/6/2
f 8/7/3 9/8/4 10/5/5
f 11/6/5 10/5/5 9/8/4
f 12/8/6 13/6/7 14/9/8
f 15/10/9 14/9/8 13/6/7
f 14/9/8 15/10/9 16/11/10
f 17/1/1 18/3/1 19/4/1
f 20/12/1 19/4/1 18/3/1
f 21/13/11 22/10/11 23/5/11
f 24/6/11 23/5/11 22/10/11
f 25/14/12 26/11/12 27/13/12
f 28/10/12 27/13/12 26/11/12
f 29/3/1 30/4/1 31/12/1
f 32/13/13 33/10/13 34/14/13
f 35/11/13 34/14/13 33/10/13
f 36/11/14 37/10/15 38/9/16
f 39/6/17 38/9/16 37/10/15
f 38/9/16 39/6/17 40/8/18
f 41/5/19 42/6/19 43/13/19
f 44/10/19 43/13/19 42/6/19
f 45/15/20 46/16/21 47/17/22
f 48/18/23 47/17/22 46/16/21
f 47/17/22 48/18/23 49/19/24
f 50/20/25 49/19/24 48/18/23
f 49/19/24 50/20/25 51/17/26
f 52/18/27 51/17/26 50/20/25
f 51/17/26 52/18/27 53/15/28
f 54/16/29 53/15/28 52/18/27
f 53/15/28 54/16/29 55/21/30
f 56/22/31 55/21/30 54/16/29
f 55/21/30 56/22/31 57/15/32
f 58/16/33 57/15/32 56/22/31
f 59/22/34 60/16/35 61/23/36
f 62/18/37 61/23/36 60/16/35
f 61/23/36 62/18/37 63/20/38
f 64/16/39 65/23/40 66/18/40
f 67/20/41 66/18/40 65/23/40
f 68/15/1 69/17/1 70/21/1
f 71/19/1 70/21/1 69/17/1
f 70/21/1 71/19/1 72/17/1
f 73/15/1 74/21/1 75/17/1
f 76/23/42 77/16/42 78/22/42
f 79/24/43 80/25/43 81/26/44
f 82/27/45 81/26/44 80/25/43
f 81/26/44 82/27/45 83/24/46
f 84/25/47 83/24/46 82/27/45
f 83/24/46 84/25/47 85/28/48
f 86/29/49 85/28/48 84/25/47
f 85/28/48 86/29/49 87/30/50
f 88/31/51 87/30/50 86/29/49
f 87/30/50 88/31/51 89/28/52
f 90/29/53 89/28/52 88/31/51
f 89/28/52 90/29/53 91/24/54
f 92/25/55 91/24/54 90/29/53
# 58 triangles in group

g submesh1
usemtl Saber
f 93/32/56 94/33/56 95/34/56
f 96/32/56 97/34/56 98/35/56
f 99/35/56 100/34/56 101/33/56
f 102/35/56 103/33/56 104/32/56
f 105/32/57 106/33/57 107/34/57
f 108/32/57 109/34/57 110/35/57
f 111/35/57 112/34/57 113/33/57
f 114/35/57 115/33/57 116/32/57
f 117/32/58 118/33/58 119/34/58
f 120/32/58 121/34/58 122/35/58
f 123/35/58 124/34/58 125/33/58
f 126/35/58 127/33/58 128/32/58
f 129/32/2 130/33/2 131/34/2
f 132/32/2 133/34/2 134/35/2
f 135/35/2 136/34/2 137/33/2
f 138/35/2 139/33/2 140/32/2
# 16 triangles in group

g submesh2
usemtl Saber
f 141/36/59 142/37/60 143/38/61
f 144/39/62 143/38/61 142/37/60
f 143/38/61 144/39/62 145/40/63
f 146/41/64 145/40/63 144/39/62
f 145/40/63 146/41/64 147/42/64
f 148/36/65 149/43/65 150/37/66
f 151/44/67 150/37/66 149/43/65
f 150/37/66 151/44/67 152/39/68
f 153/41/68 152/39/68 151/44/67
f 154/40/69 155/42/69 156/39/70
f 157/41/71 156/39/70 155/42/69
f 156/39/70 157/41/71 158/37/72
f 159/44/73 158/37/72 157/41/71
f 158/37/72 159/44/73 160/36/74
f 161/43/75 160/36/74 159/44/73
f 160/36/74 161/43/75 162/45/76
f 163/46/77 162/45/76 161/43/75
f 162/45/76 163/46/77 164/36/78
f 165/43/78 164/36/78 163/46/77
f 166/39/79 167/37/80 168/38/81
f 169/36/82 168/38/81 167/37/80
f 168/38/81 169/36/82 170/45/83
f 171/38/84 172/45/84 173/36/84
f 174/38/85 175/40/85 176/39/85
f 177/36/86 178/37/87 179/38/88
f 180/39/89 179/38/88 178/37/87
f 179/38/88 180/39/89 181/40/90
f 182/41/91 181/40/90 180/39/89
f 181/40/90 182/41/91 183/42/91
f 184/36/92 185/43/92 186/37/93
f 187/44/94 186/37/93 185/43/92
f 186/37/93 187/44/94 188/39/95
f 189/41/96 188/39/95 187/44/94
f 190/40/97 191/42/97 192/39/98
f 193/41/99 192/39/98 191/42/97
f 192/39/98 193/41/99 194/37/100
f 195/44/101 194/37/100 193/41/99
f 194/37/100 195/44/101 196/36/102
f 197/43/103 196/36/102 195/44/101
f 196/36/102 197/43/103 198/45/104
f 199/46/105 198/45/104 197/43/103
f 198/45/104 199/46/105 200/36/106
f 201/43/106 200/36/106 199/46/105
f 202/39/107 203/37/108 204/38/109
f 205/36/110 204/38/109 203/37/108
f 204/38/109 205/36/110 206/45/111
f 207/38/112 208/45/112 209/36/112
f 210/38/113 211/40/113 212/39/113
# 48 triangles in group

# 122 triangles total

