# Wavefront OBJ exported by MilkShape 3D

mtllib TBreaker.mtl

v 2.589844 1.140625 13.425780
v 1.710938 -0.136719 12.546880
v 2.589844 1.140625 8.515625
v 1.710938 -0.136719 9.394531
v 2.351563 -3.941406 13.183590
v 2.589844 -2.859375 13.425780
v -2.074219 -3.941406 13.183590
v -2.316406 -2.859375 13.425780
v -2.074219 -3.941406 8.753906
v -2.316406 -2.859375 8.515625
v 2.351563 -3.941406 8.753906
v 2.589844 -2.859375 8.515625
v -2.316406 1.140625 13.425780
v -1.437500 -0.136719 12.546880
v 2.589844 1.140625 13.425780
v 1.710938 -0.136719 12.546880
v 0.136719 -1.128906 -0.582031
v 0.402344 -0.859375 3.355469
v 0.402344 -0.859375 -0.582031
v 0.136719 -0.589844 -0.582031
v 0.402344 -0.859375 3.355469
v 0.136719 -1.128906 -0.582031
v 0.136719 -1.128906 3.355469
v -0.128906 -0.859375 3.355469
v 0.769531 -0.859375 12.519530
v 0.136719 -0.226563 12.519530
v 0.136719 -0.304688 12.843750
v -0.496094 -0.859375 12.519530
v -0.414063 -0.859375 12.843750
v 0.136719 -1.414063 12.843750
v 0.136719 -0.304688 12.843750
v 0.691406 -0.859375 12.843750
v 0.769531 -0.859375 12.519530
v 0.136719 -1.414063 12.843750
v 0.136719 -1.492188 12.519530
v -0.496094 -0.859375 12.519530
v -2.074219 -3.941406 13.183590
v -2.316406 -2.859375 13.425780
v -2.074219 -3.941406 8.753906
v -2.316406 -2.859375 8.515625
v 2.589844 1.140625 8.515625
v 1.710938 -0.136719 9.394531
v -2.316406 1.140625 8.515625
v -1.437500 -0.136719 9.394531
v 0.691406 -0.859375 -5.871094
v 0.136719 -1.492188 -5.644531
v 0.136719 -1.414063 -5.871094
v -0.414063 -0.859375 -5.871094
v 0.136719 -1.492188 -5.644531
v 0.691406 -0.859375 -5.871094
v 0.769531 -0.859375 -5.644531
v 0.136719 -0.226563 -5.644531
v 2.351563 -3.941406 8.753906
v 2.589844 -2.859375 8.515625
v 2.351563 -3.941406 13.183590
v 2.589844 -2.859375 13.425780
v -2.316406 1.140625 8.515625
v -1.437500 -0.136719 9.394531
v -2.316406 1.140625 13.425780
v -1.437500 -0.136719 12.546880
v 0.691406 -0.859375 -5.871094
v 0.136719 -0.304688 -5.871094
v 0.136719 -0.226563 -5.644531
v -0.414063 -0.859375 -5.871094
v -0.496094 -0.859375 -5.644531
v 0.136719 -1.492188 -5.644531
v 2.589844 1.140625 13.425780
v 2.351563 2.222656 13.183590
v -2.316406 1.140625 13.425780
v -2.074219 2.222656 13.183590
v -2.316406 1.140625 8.515625
v -2.074219 2.222656 8.753906
v 2.589844 1.140625 8.515625
v 2.351563 2.222656 8.753906
v -2.316406 1.140625 13.425780
v -2.074219 2.222656 13.183590
v -2.316406 1.140625 8.515625
v -2.074219 2.222656 8.753906
v 2.589844 1.140625 8.515625
v 2.351563 2.222656 8.753906
v 2.589844 1.140625 13.425780
v 2.351563 2.222656 13.183590
v 1.710938 -1.582031 12.546880
v 2.589844 -2.859375 13.425780
v 1.710938 -1.582031 9.394531
v 2.589844 -2.859375 8.515625
v -1.437500 -1.582031 12.546880
v -1.437500 -0.136719 12.546880
v -1.437500 -1.582031 9.394531
v -1.437500 -0.136719 9.394531
v 1.710938 -1.582031 12.546880
v 1.710938 -1.582031 9.394531
v 1.710938 -0.136719 12.546880
v 1.710938 -0.136719 9.394531
v -1.437500 -1.582031 12.546880
v -2.316406 -2.859375 13.425780
v 1.710938 -1.582031 12.546880
v 2.589844 -2.859375 13.425780
v 0.136719 -1.128906 -0.582031
v -0.128906 -0.859375 -0.582031
v -0.128906 -0.859375 3.355469
v 0.136719 -0.589844 3.355469
v 0.402344 -0.859375 3.355469
v 0.136719 -0.589844 3.355469
v 0.136719 -0.589844 -0.582031
v -0.128906 -0.859375 -0.582031
v -1.437500 -1.582031 12.546880
v 1.710938 -1.582031 12.546880
v -1.437500 -0.136719 12.546880
v 1.710938 -0.136719 12.546880
v 1.710938 -1.582031 9.394531
v 2.589844 -2.859375 8.515625
v -1.437500 -1.582031 9.394531
v -2.316406 -2.859375 8.515625
v 1.710938 -0.136719 9.394531
v 1.710938 -1.582031 9.394531
v -1.437500 -0.136719 9.394531
v -1.437500 -1.582031 9.394531
v -1.437500 -1.582031 9.394531
v -2.316406 -2.859375 8.515625
v -1.437500 -1.582031 12.546880
v -2.316406 -2.859375 13.425780
v 0.136719 -1.808594 -5.644531
v -0.683594 -1.332031 -4.253906
v -0.683594 -1.332031 -5.644531
v -0.683594 -0.386719 -5.644531
v -0.683594 -1.332031 -4.253906
v 0.136719 -1.808594 -5.644531
v 0.136719 -1.808594 -4.253906
v 0.957031 -1.332031 -4.253906
v 0.957031 -0.386719 -4.253906
v 0.136719 0.085938 -4.253906
v 0.957031 -1.332031 -4.253906
v 0.136719 -1.808594 -4.253906
v 3.066406 1.562500 10.261720
v 2.265625 -4.507813 10.261720
v 2.265625 2.789063 10.261720
v -1.992188 2.789063 10.261720
v 3.066406 -3.281250 10.261720
v 2.265625 -4.507813 10.261720
v 3.066406 1.562500 10.261720
v 3.066406 -3.281250 10.261720
v 3.066406 -3.281250 11.675780
v 2.265625 -4.507813 10.261720
v 2.265625 -4.507813 11.675780
v -2.789063 1.562500 11.675780
v -2.789063 -3.281250 11.675780
v -1.992188 2.789063 11.675780
v -1.992188 -4.507813 11.675780
v 2.265625 2.789063 11.675780
v 2.265625 -4.507813 11.675780
v 3.066406 1.562500 11.675780
v 3.066406 -3.281250 11.675780
v 3.066406 -3.281250 10.261720
v 3.066406 1.562500 10.261720
v 3.066406 1.562500 11.675780
v 2.265625 2.789063 10.261720
v 2.265625 2.789063 11.675780
v 3.066406 -3.281250 11.675780
v 3.066406 -3.281250 10.261720
v 3.066406 1.562500 11.675780
v 2.265625 -4.507813 10.261720
v -1.992188 -4.507813 10.261720
v -1.992188 2.789063 10.261720
v -2.789063 -3.281250 10.261720
v -2.789063 1.562500 10.261720
v -1.992188 -4.507813 11.675780
v -1.992188 -4.507813 10.261720
v 2.265625 -4.507813 11.675780
v 2.265625 -4.507813 10.261720
v -2.789063 -3.281250 11.675780
v -2.789063 -3.281250 10.261720
v -1.992188 -4.507813 11.675780
v -1.992188 -4.507813 10.261720
v -1.992188 2.789063 10.261720
v -1.992188 2.789063 11.675780
v 2.265625 2.789063 10.261720
v 2.265625 2.789063 11.675780
v -2.789063 -3.281250 11.675780
v -2.789063 1.562500 11.675780
v -2.789063 1.562500 10.261720
v -1.992188 2.789063 11.675780
v -1.992188 2.789063 10.261720
v -2.789063 -3.281250 10.261720
v -2.789063 -3.281250 11.675780
v -2.789063 1.562500 10.261720
v 0.957031 -0.386719 -5.644531
v 0.136719 -1.808594 -5.644531
v 0.136719 0.085938 -5.644531
v -0.683594 -0.386719 -5.644531
v 0.957031 -1.332031 -5.644531
v 0.136719 -1.808594 -5.644531
v 0.957031 -0.386719 -5.644531
v -0.683594 -0.386719 -5.644531
v 0.136719 -1.808594 -5.644531
v -0.683594 -1.332031 -5.644531
v -0.308594 -0.859375 3.277344
v 0.136719 -0.410156 3.277344
v 0.136719 -1.304688 3.277344
v 0.582031 -0.859375 3.277344
v 0.136719 -1.304688 7.074219
v 0.582031 -0.859375 7.074219
v 0.582031 -0.859375 7.074219
v 0.136719 -0.410156 3.277344
v 0.136719 -0.410156 7.074219
v -0.308594 -0.859375 3.277344
v -0.308594 -0.859375 7.074219
v 0.136719 -1.304688 3.277344
v 0.136719 -1.304688 7.074219
v 0.582031 -0.859375 3.277344
v 0.136719 -0.410156 3.277344
v 0.582031 -0.859375 7.074219
v 0.136719 0.085938 -4.253906
v 0.957031 -0.386719 -4.253906
v 0.957031 -0.386719 -5.644531
v 0.957031 -1.332031 -4.253906
v 0.957031 -1.332031 -5.644531
v 0.136719 -1.808594 -5.644531
v 0.957031 -0.386719 -5.644531
v 0.136719 0.085938 -5.644531
v 0.136719 0.085938 -4.253906
v -0.683594 -0.386719 -5.644531
v -0.683594 -0.386719 -4.253906
v -0.683594 -1.332031 -4.253906
v -0.683594 -1.332031 -4.253906
v 0.136719 -1.808594 -4.253906
v -0.683594 -0.386719 -4.253906
v 0.136719 0.085938 -4.253906
v 0.582031 -0.859375 -0.535156
v 0.136719 -0.410156 -0.535156
v 0.136719 -1.304688 -0.535156
v -0.308594 -0.859375 -0.535156
v 0.136719 -1.304688 -4.308594
v -0.308594 -0.859375 -4.308594
v 0.136719 -0.164063 9.398438
v -0.460938 -0.511719 7.027344
v -0.460938 -0.511719 9.398438
v -0.460938 -1.207031 9.398438
v -0.460938 -0.511719 7.027344
v 0.136719 -0.164063 9.398438
v 0.136719 -0.164063 7.027344
v 0.738281 -0.511719 7.027344
v -0.460938 -1.207031 9.398438
v 0.136719 -1.554688 7.027344
v 0.136719 -1.554688 9.398438
v 0.738281 -1.207031 9.398438
v 0.136719 -1.554688 7.027344
v -0.460938 -1.207031 9.398438
v -0.460938 -1.207031 7.027344
v -0.460938 -0.511719 7.027344
v -0.460938 -0.511719 7.027344
v 0.136719 -0.164063 7.027344
v 0.136719 -1.554688 7.027344
v 0.738281 -0.511719 7.027344
v 0.738281 -1.207031 7.027344
v -0.460938 -1.207031 7.027344
v -0.460938 -0.511719 7.027344
v 0.136719 -1.554688 7.027344
v 0.136719 -0.164063 9.398438
v 0.738281 -0.511719 9.398438
v 0.738281 -0.511719 7.027344
v 0.738281 -1.207031 9.398438
v 0.738281 -1.207031 7.027344
v 0.136719 -1.554688 7.027344
v 0.136719 -1.304688 -0.535156
v 0.582031 -0.859375 -4.308594
v 0.582031 -0.859375 -0.535156
v 0.136719 -0.410156 -4.308594
v 0.136719 -0.410156 -0.535156
v -0.308594 -0.859375 -4.308594
v -0.308594 -0.859375 -0.535156
v 0.136719 -1.304688 -4.308594
v 0.582031 -0.859375 -4.308594
v 0.136719 -1.304688 -0.535156
v -2.074219 -3.941406 13.183590
v -2.074219 -3.941406 8.753906
v -1.664063 -4.746094 9.167969
v -2.074219 -3.941406 13.183590
v -1.664063 -4.746094 9.167969
v -1.664063 -4.746094 12.769530
v 2.351563 -3.941406 8.753906
v 2.351563 -3.941406 13.183590
v 1.937500 -4.746094 12.769530
v 2.351563 -3.941406 8.753906
v 1.937500 -4.746094 12.769530
v 1.937500 -4.746094 9.167969
v 0.136719 -0.859375 -7.167969
v 0.136719 -1.414063 -5.871094
v -0.414063 -0.859375 -5.871094
v -0.476563 -0.683594 7.289063
v -0.476563 -1.031250 7.289063
v -0.476563 -1.031250 9.085938
v -0.476563 -0.683594 7.289063
v -0.476563 -1.031250 9.085938
v -0.476563 -0.683594 9.085938
v -1.664063 3.023438 9.167969
v -1.664063 3.023438 12.769530
v 1.937500 3.023438 12.769530
v -1.664063 3.023438 9.167969
v 1.937500 3.023438 12.769530
v 1.937500 3.023438 9.167969
v 1.937500 3.023438 12.769530
v -1.664063 3.023438 12.769530
v -2.074219 2.222656 13.183590
v 1.937500 3.023438 12.769530
v -2.074219 2.222656 13.183590
v 2.351563 2.222656 13.183590
v 0.750000 -1.031250 9.085938
v 0.750000 -1.031250 7.289063
v 0.750000 -0.683594 7.289063
v 0.750000 -1.031250 9.085938
v 0.750000 -0.683594 7.289063
v 0.750000 -0.683594 9.085938
v 0.136719 -0.859375 -7.167969
v 0.691406 -0.859375 -5.871094
v 0.136719 -1.414063 -5.871094
v -1.664063 3.023438 9.167969
v 1.937500 3.023438 9.167969
v 2.351563 2.222656 8.753906
v -1.664063 3.023438 9.167969
v 2.351563 2.222656 8.753906
v -2.074219 2.222656 8.753906
v 0.136719 -0.859375 15.121090
v 0.136719 -0.304688 12.843750
v -0.414063 -0.859375 12.843750
v -0.414063 -0.859375 12.843750
v 0.136719 -1.414063 12.843750
v 0.136719 -0.859375 15.121090
v -1.664063 3.023438 12.769530
v -1.664063 3.023438 9.167969
v -2.074219 2.222656 8.753906
v -1.664063 3.023438 12.769530
v -2.074219 2.222656 8.753906
v -2.074219 2.222656 13.183590
v 1.937500 3.023438 9.167969
v 1.937500 3.023438 12.769530
v 2.351563 2.222656 13.183590
v 1.937500 3.023438 9.167969
v 2.351563 2.222656 13.183590
v 2.351563 2.222656 8.753906
v 0.136719 -0.859375 15.121090
v 0.691406 -0.859375 12.843750
v 0.136719 -0.304688 12.843750
v 0.136719 -0.304688 -5.871094
v 0.691406 -0.859375 -5.871094
v 0.136719 -0.859375 -7.167969
v 2.351563 -3.941406 13.183590
v -2.074219 -3.941406 13.183590
v -1.664063 -4.746094 12.769530
v 2.351563 -3.941406 13.183590
v -1.664063 -4.746094 12.769530
v 1.937500 -4.746094 12.769530
v 0.136719 -1.414063 12.843750
v 0.691406 -0.859375 12.843750
v 0.136719 -0.859375 15.121090
v -2.074219 -3.941406 8.753906
v 2.351563 -3.941406 8.753906
v 1.937500 -4.746094 9.167969
v -2.074219 -3.941406 8.753906
v 1.937500 -4.746094 9.167969
v -1.664063 -4.746094 9.167969
v -0.414063 -0.859375 -5.871094
v 0.136719 -0.304688 -5.871094
v 0.136719 -0.859375 -7.167969
v 1.937500 -4.746094 9.167969
v 1.937500 -4.746094 12.769530
v -1.664063 -4.746094 12.769530
v 1.937500 -4.746094 9.167969
v -1.664063 -4.746094 12.769530
v -1.664063 -4.746094 9.167969
# 370 vertices

vt 0.237518 0.862701
vt 0.277893 0.660431
vt 0.472595 0.862701
vt 0.433594 0.660431
vt 0.234192 0.214783
vt 0.234192 0.332550
vt 0.005524 0.214783
vt 0.005524 0.332550
vt 0.005524 0.862701
vt 0.043945 0.660431
vt 0.230713 0.862701
vt 0.192749 0.660431
vt 0.221863 0.118835
vt 0.004364 0.160187
vt 0.221863 0.160187
vt 0.221863 0.195618
vt 0.004364 0.118835
vt 0.370850 0.353607
vt 0.370850 0.490875
vt 0.341431 0.490875
vt 0.341431 0.353607
vt 0.341431 0.213593
vt 0.370850 0.213593
vt 0.252747 0.214783
vt 0.241425 0.332550
vt 0.461090 0.214783
vt 0.472595 0.332550
vt 0.230713 0.871521
vt 0.230713 0.990540
vt 0.005524 0.871521
vt 0.005524 0.990540
vt 0.237915 0.871521
vt 0.249603 0.990540
vt 0.472595 0.871521
vt 0.461090 0.990540
vt 0.277893 0.537476
vt 0.241028 0.339264
vt 0.433594 0.537476
vt 0.472595 0.339264
vt 0.277893 0.534821
vt 0.277893 0.663086
vt 0.433594 0.534821
vt 0.433594 0.663086
vt 0.043945 0.537476
vt 0.005524 0.339264
vt 0.192749 0.537476
vt 0.234192 0.339264
vt 0.004364 0.195618
vt 0.043945 0.534821
vt 0.192749 0.534821
vt 0.043945 0.663086
vt 0.192749 0.663086
vt 0.683929 0.010864
vt 0.480866 0.140198
vt 0.683929 0.140198
vt 0.683929 0.287628
vt 0.480866 0.010864
vt 0.214661 0.649780
vt 0.253906 0.706299
vt 0.214661 0.535004
vt 0.253906 0.478485
vt 0.995941 0.420624
vt 0.970764 0.009796
vt 0.970764 0.467896
vt 0.793884 0.467896
vt 0.995941 0.071808
vt 0.761261 0.117584
vt 0.691956 0.117584
vt 0.761261 0.006989
vt 0.691956 0.006989
vt 0.768982 0.418884
vt 0.768982 0.073547
vt 0.793884 0.009796
vt 0.761261 0.425720
vt 0.691956 0.425720
vt 0.761261 0.555298
vt 0.691956 0.555298
vt 0.793640 0.005524
vt 0.971954 0.005524
vt 0.971954 0.010529
vt 0.793640 0.555573
vt 0.971954 0.555573
vt 0.971954 0.467896
vt 0.996277 0.617615
vt 0.996277 0.664093
vt 0.996277 0.571137
vt 0.692169 0.571137
vt 0.692169 0.617615
vt 0.692169 0.664093
vt 0.480866 0.429169
vt 0.480866 0.287628
vt 0.683929 0.429169
vt 0.887177 0.992432
vt 0.700043 0.902039
vt 0.887177 0.902039
vt 0.887177 0.749939
vt 0.700043 0.992432
vt 0.700043 0.680878
vt 0.887177 0.680878
vt 0.700043 0.749939
vt 0.035004 0.646332
vt 0.002960 0.720215
vt 0.002960 0.480194
vt 0.035004 0.554077
vt 0.246857 0.445038
vt 0.003845 0.445038
vt 0.003845 0.586151
vt 0.246857 0.586151
vt 0.271942 0.670136
vt 0.495789 0.554321
vt 0.495789 0.670136
vt 0.253967 0.990173
vt 0.253967 0.838074
vt 0.441101 0.838074
vt 0.441101 0.990173
vt 0.003845 0.990875
vt 0.246857 0.990875
vt 0.495789 0.785950
# 118 texture coordinates

vn 0.823821 -0.566849 0.000000
vn 0.000000 -0.218425 0.975854
vn 0.000000 -0.215064 -0.976600
vn 0.000000 -0.566847 0.823823
vn -0.712249 0.701927 0.000000
vn -1.000000 0.000000 0.000000
vn -0.712249 -0.701927 0.000000
vn 0.000000 1.000000 0.000000
vn 0.712249 0.701927 0.000000
vn 0.697061 0.697061 0.167966
vn 0.000000 0.972174 0.234258
vn -0.309003 0.923621 0.226806
vn -0.923388 0.307393 0.229924
vn -0.969452 0.000000 0.245281
vn -0.698434 -0.693515 0.176711
vn 0.972174 0.000000 0.234258
vn 0.924827 -0.308275 0.222849
vn 0.308276 -0.924827 0.222849
vn 0.000000 -0.972174 0.234258
vn -0.697061 -0.697061 0.167966
vn -0.975854 -0.218422 0.000000
vn 0.000000 -0.566849 -0.823821
vn 0.686981 -0.686980 -0.236889
vn -0.001764 -0.945372 -0.325989
vn -0.689540 -0.684684 -0.236097
vn 0.945373 0.000000 -0.325989
vn 0.686980 0.686980 -0.236889
vn 0.976600 -0.215063 0.000000
vn -0.823821 -0.566849 0.000000
vn -0.001764 0.945372 -0.325989
vn -0.300869 0.899966 -0.315499
vn -0.899157 0.298917 -0.319634
vn -0.940267 0.000000 -0.340439
vn -0.685013 -0.685013 -0.248020
vn 0.000000 0.218425 0.975854
vn 0.000000 0.215064 -0.976600
vn -0.975854 0.218422 0.000000
vn 0.976600 0.215063 0.000000
vn 0.823821 0.566849 0.000000
vn 1.000000 0.000000 0.000000
vn 0.000000 0.566847 0.823823
vn 0.712249 -0.701927 0.000000
vn 0.000000 -1.000000 0.000000
vn 0.000000 0.000000 1.000000
vn 0.000000 0.566849 -0.823821
vn 0.000000 0.000000 -1.000000
vn -0.823821 0.566849 0.000000
vn -0.502334 -0.864673 0.000000
vn -0.866699 -0.498831 0.000000
vn 0.502335 -0.864673 0.000000
vn 0.837345 -0.546674 0.000000
vn 0.958474 0.285179 0.000000
vn 0.925649 0.378383 0.000000
vn 0.837345 0.546674 0.000000
vn -0.838566 -0.544800 0.000000
vn -0.958792 0.284108 0.000000
vn -0.926223 0.376976 0.000000
vn -0.838566 0.544800 0.000000
vn 0.316228 -0.316227 -0.894427
vn 0.632456 -0.632455 -0.447214
vn 0.707108 -0.707106 0.000000
vn 0.710188 0.704012 0.000000
vn -0.318721 0.947849 0.000000
vn -0.949781 0.312914 0.000000
vn -0.948406 -0.317058 0.000000
vn -0.707107 -0.707107 0.000000
vn 0.499247 0.866460 0.000000
vn 0.865808 0.500376 0.000000
vn 0.944830 0.327561 0.000000
vn 0.945163 -0.326598 0.000000
vn 0.866699 -0.498831 0.000000
vn -0.188616 0.982051 0.000000
vn -0.755522 0.655123 0.000000
vn -0.865808 0.500377 0.000000
vn -0.316228 -0.316228 0.894427
vn -0.632456 -0.632456 0.447214
vn -0.502816 0.864393 0.000000
vn -0.866838 0.498590 0.000000
vn -0.001413 0.999999 0.000000
vn 0.500371 0.865811 0.000000
vn -0.001413 -0.999999 0.000000
vn 0.500372 -0.865810 0.000000
vn 0.999998 -0.002183 0.000000
vn 0.949782 0.312913 0.000000
vn 0.318722 0.947848 0.000000
vn -0.710188 0.704012 0.000000
vn -0.890941 -0.454120 0.000000
vn 0.889187 -0.457543 0.000000
vn -0.679418 -0.674634 -0.288548
vn 0.000000 0.459302 0.888280
vn 0.676830 -0.676829 -0.289487
vn 0.000000 0.459305 -0.888279
vn -0.699376 0.694452 0.169146
vn -0.699376 -0.694451 0.169146
vn -0.890044 0.455875 0.000000
vn 0.888279 0.459305 0.000000
vn 0.696847 0.696847 0.169730
vn 0.676830 0.676830 -0.289487
vn 0.000000 -0.457540 0.889189
vn 0.696848 -0.696847 0.169730
vn 0.000000 -0.457543 -0.889188
vn -0.679418 0.674634 -0.288548
# 102 normals

g TBreaker
usemtl TBreaker
s 1
f 1/1/1 2/2/1 3/3/1
f 4/4/1 3/3/1 2/2/1
f 5/5/2 6/6/2 7/7/2
f 8/8/2 7/7/2 6/6/2
f 9/7/3 10/8/3 11/5/3
f 12/6/3 11/5/3 10/8/3
f 13/9/4 14/10/4 15/11/4
f 16/12/4 15/11/4 14/10/4
f 17/13/5 18/14/6 19/15/6
f 20/16/7 19/15/6 18/14/6
f 21/14/5 22/13/8 23/17/8
f 24/14/9 23/17/8 22/13/8
f 25/18/10 26/19/11 27/20/12
f 28/18/13 27/20/12 26/19/11
f 27/20/12 28/18/13 29/21/14
f 30/22/15 29/21/14 28/18/13
f 31/20/10 32/21/16 33/18/17
f 34/22/18 33/18/17 32/21/16
f 33/18/17 34/22/18 35/23/19
f 36/18/20 35/23/19 34/22/18
f 37/24/21 38/25/21 39/26/21
f 40/27/21 39/26/21 38/25/21
f 41/11/22 42/12/22 43/9/22
f 44/10/22 43/9/22 42/12/22
f 45/21/23 46/23/24 47/22/24
f 48/21/25 47/22/24 46/23/24
f 49/23/23 50/21/26 51/18/26
f 52/19/27 51/18/26 50/21/26
f 53/26/28 54/27/28 55/24/28
f 56/25/28 55/24/28 54/27/28
f 57/3/29 58/4/29 59/1/29
f 60/2/29 59/1/29 58/4/29
f 61/21/27 62/20/30 63/19/31
f 64/21/32 63/19/31 62/20/30
f 63/19/31 64/21/32 65/18/33
f 66/23/34 65/18/33 64/21/32
f 67/28/35 68/29/35 69/30/35
f 70/31/35 69/30/35 68/29/35
f 71/30/36 72/31/36 73/28/36
f 74/29/36 73/28/36 72/31/36
f 75/32/37 76/33/37 77/34/37
f 78/35/37 77/34/37 76/33/37
f 79/34/38 80/35/38 81/32/38
f 82/33/38 81/32/38 80/35/38
f 83/36/39 84/37/39 85/38/39
f 86/39/39 85/38/39 84/37/39
f 87/40/6 88/41/6 89/42/6
f 90/43/6 89/42/6 88/41/6
f 91/40/40 92/42/40 93/41/40
f 94/43/40 93/41/40 92/42/40
f 95/44/41 96/45/41 97/46/41
f 98/47/41 97/46/41 96/45/41
f 99/13/9 100/15/40 101/14/40
f 102/48/42 101/14/40 100/15/40
f 103/14/7 104/48/43 105/16/43
f 106/15/42 105/16/43 104/48/43
f 107/49/44 108/50/44 109/51/44
f 110/52/44 109/51/44 108/50/44
f 111/46/45 112/47/45 113/44/45
f 114/45/45 113/44/45 112/47/45
f 115/52/46 116/50/46 117/51/46
f 118/49/46 117/51/46 116/50/46
f 119/38/47 120/39/47 121/36/47
f 122/37/47 121/36/47 120/39/47
f 123/53/48 124/54/49 125/55/49
f 126/56/6 125/55/49 124/54/49
f 127/54/48 128/53/43 129/57/43
f 130/54/50 129/57/43 128/53/43
f 131/58/44 132/59/44 133/60/44
f 134/61/44 133/60/44 132/59/44
f 135/62/46 136/63/46 137/64/46
f 138/65/46 137/64/46 136/63/46
f 139/66/46 140/63/46 141/62/46
f 142/67/51 143/68/51 144/69/51
f 145/70/51 144/69/51 143/68/51
f 146/71/44 147/72/44 148/65/44
f 149/73/44 148/65/44 147/72/44
f 148/65/44 149/73/44 150/64/44
f 151/63/44 150/64/44 149/73/44
f 150/64/44 151/63/44 152/62/44
f 153/66/44 152/62/44 151/63/44
f 154/67/40 155/74/52 156/75/53
f 157/76/54 156/75/53 155/74/52
f 156/75/53 157/76/54 158/77/54
f 159/68/40 160/67/40 161/75/40
f 162/63/46 163/73/46 164/65/46
f 165/72/46 164/65/46 163/73/46
f 164/65/46 165/72/46 166/71/46
f 167/78/43 168/73/43 169/79/43
f 170/80/43 169/79/43 168/73/43
f 171/68/55 172/67/55 173/70/55
f 174/69/55 173/70/55 172/67/55
f 175/81/8 176/65/8 177/82/8
f 178/83/8 177/82/8 176/65/8
f 179/68/6 180/75/56 181/74/57
f 182/77/58 181/74/57 180/75/56
f 181/74/57 182/77/58 183/76/58
f 184/67/6 185/68/6 186/74/6
f 187/58/46 188/61/46 189/59/46
f 190/58/46 189/59/46 188/61/46
f 191/60/46 192/61/46 193/58/46
f 194/58/46 195/61/46 196/60/46
f 197/84/46 198/85/46 199/86/59
f 200/84/60 199/86/59 198/85/46
f 199/86/59 200/84/60 201/87/61
f 202/88/61 201/87/61 200/84/60
f 203/88/62 204/85/8 205/89/63
f 206/84/64 205/89/63 204/85/8
f 205/89/63 206/84/64 207/88/65
f 208/86/66 207/88/65 206/84/64
f 207/88/65 208/86/66 209/87/66
f 210/84/62 211/85/62 212/88/62
f 213/90/67 214/91/68 215/56/69
f 216/54/70 215/56/69 214/91/68
f 215/56/69 216/54/70 217/55/71
f 218/53/50 217/55/71 216/54/70
f 219/56/67 220/92/8 221/90/72
f 222/56/73 221/90/72 220/92/8
f 221/90/72 222/56/73 223/91/74
f 224/54/6 223/91/74 222/56/73
f 225/60/44 226/61/44 227/58/44
f 228/59/44 227/58/44 226/61/44
f 229/84/44 230/85/44 231/86/75
f 232/84/76 231/86/75 230/85/44
f 231/86/75 232/84/76 233/87/66
f 234/88/66 233/87/66 232/84/76
f 235/93/77 236/94/78 237/95/78
f 238/96/6 237/95/78 236/94/78
f 239/94/77 240/93/79 241/97/79
f 242/94/80 241/97/79 240/93/79
f 243/96/48 244/98/81 245/99/81
f 246/96/82 245/99/81 244/98/81
f 247/98/48 248/96/49 249/100/49
f 250/94/6 249/100/49 248/96/49
f 251/101/46 252/102/46 253/103/46
f 254/101/46 253/103/46 252/102/46
f 253/103/46 254/101/46 255/104/46
f 256/104/46 257/101/46 258/103/46
f 259/93/80 260/95/68 261/94/69
f 262/96/70 261/94/69 260/95/68
f 261/94/69 262/96/70 263/100/71
f 264/98/82 263/100/71 262/96/70
f 265/86/61 266/88/83 267/84/84
f 268/89/85 267/84/84 266/88/83
f 267/84/84 268/89/85 269/85/63
f 270/88/86 269/85/63 268/89/85
f 269/85/63 270/88/86 271/84/86
f 272/87/61 273/88/61 274/86/61
# 148 triangles in group

g TBrkrEnrgy
usemtl TBrkrEnrgy
f 275/105/87 276/106/87 277/107/87
f 278/105/87 279/107/87 280/108/87
f 281/106/88 282/105/88 283/108/88
f 284/106/88 285/108/88 286/107/88
f 287/109/89 288/110/89 289/111/89
f 290/112/6 291/113/6 292/114/6
f 293/112/6 294/114/6 295/115/6
f 296/116/8 297/107/8 298/108/8
f 299/116/8 300/108/8 301/117/8
f 302/108/90 303/107/90 304/106/90
f 305/108/90 306/106/90 307/105/90
f 308/114/40 309/113/40 310/112/40
f 311/114/40 312/112/40 313/115/40
f 314/109/91 315/111/91 316/110/91
f 317/107/92 318/108/92 319/105/92
f 320/107/92 321/105/92 322/106/92
f 323/109/93 324/118/93 325/111/93
f 326/111/94 327/110/94 328/109/94
f 329/108/95 330/107/95 331/106/95
f 332/108/95 333/106/95 334/105/95
f 335/107/96 336/108/96 337/105/96
f 338/107/96 339/105/96 340/106/96
f 341/109/97 342/111/97 343/118/97
f 344/118/98 345/111/98 346/109/98
f 347/105/99 348/106/99 349/107/99
f 350/105/99 351/107/99 352/108/99
f 353/110/100 354/111/100 355/109/100
f 356/106/101 357/105/101 358/108/101
f 359/106/101 360/108/101 361/107/101
f 362/111/102 363/118/102 364/109/102
f 365/117/43 366/108/43 367/107/43
f 368/117/43 369/107/43 370/116/43
# 32 triangles in group

# 180 triangles total

