# Wavefront OBJ exported by MilkShape 3D

mtllib BFan.mtl

v -0.191406 -5.933594 6.976563
v -0.191406 -3.964844 8.187500
v -0.144531 -1.343750 1.691406
v 0.191406 3.917969 6.976563
v 0.191406 1.949219 8.187500
v 0.144531 -0.667969 1.691406
v 0.000000 5.464844 4.933594
v 0.000000 3.917969 6.976563
v 0.191406 3.917969 6.976563
v 0.000000 5.464844 4.933594
v 0.191406 3.917969 6.976563
v 0.191406 5.464844 4.933594
v 0.000000 5.464844 4.933594
v 0.191406 5.464844 4.933594
v 0.144531 -0.667969 1.691406
v 0.000000 5.464844 4.933594
v 0.144531 -0.667969 1.691406
v 0.000000 -0.667969 1.691406
v 0.000000 -0.304688 8.683594
v 0.191406 -0.304688 8.683594
v 0.191406 1.949219 8.187500
v 0.000000 -0.304688 8.683594
v 0.191406 1.949219 8.187500
v 0.000000 1.949219 8.187500
v 0.000000 -0.667969 1.691406
v 0.000000 3.917969 6.976563
v 0.000000 5.464844 4.933594
v 0.144531 -0.667969 1.691406
v 0.191406 1.949219 8.187500
v 0.191406 -0.304688 8.683594
v 0.191406 3.917969 6.976563
v 0.000000 3.917969 6.976563
v 0.000000 1.949219 8.187500
v 0.191406 3.917969 6.976563
v 0.000000 1.949219 8.187500
v 0.191406 1.949219 8.187500
v 0.000000 -0.304688 8.683594
v 0.000000 1.949219 8.187500
v 0.000000 -0.667969 1.691406
v 0.000000 1.949219 8.187500
v 0.000000 3.917969 6.976563
v 0.000000 -0.667969 1.691406
v 0.191406 5.464844 4.933594
v 0.191406 3.917969 6.976563
v 0.144531 -0.667969 1.691406
v 0.000000 -7.480469 4.933594
v 0.000000 -5.933594 6.976563
v -0.191406 -5.933594 6.976563
v 0.000000 -7.480469 4.933594
v -0.191406 -5.933594 6.976563
v -0.191406 -7.480469 4.933594
v 0.000000 -7.480469 4.933594
v -0.191406 -7.480469 4.933594
v -0.144531 -1.343750 1.691406
v 0.000000 -7.480469 4.933594
v -0.144531 -1.343750 1.691406
v 0.000000 -1.343750 1.691406
v 0.000000 -1.707031 8.683594
v -0.191406 -1.707031 8.683594
v -0.191406 -3.964844 8.187500
v 0.000000 -1.707031 8.683594
v -0.191406 -3.964844 8.187500
v 0.000000 -3.964844 8.187500
v 0.000000 -1.343750 1.691406
v 0.000000 -5.933594 6.976563
v 0.000000 -7.480469 4.933594
v -0.144531 -1.343750 1.691406
v -0.191406 -3.964844 8.187500
v -0.191406 -1.707031 8.683594
v -0.191406 -5.933594 6.976563
v 0.000000 -5.933594 6.976563
v 0.000000 -3.964844 8.187500
v -0.191406 -5.933594 6.976563
v 0.000000 -3.964844 8.187500
v -0.191406 -3.964844 8.187500
v 0.000000 -1.707031 8.683594
v 0.000000 -3.964844 8.187500
v 0.000000 -1.343750 1.691406
v 0.000000 -3.964844 8.187500
v 0.000000 -5.933594 6.976563
v 0.000000 -1.343750 1.691406
v -0.191406 -7.480469 4.933594
v -0.191406 -5.933594 6.976563
v -0.144531 -1.343750 1.691406
v 0.375000 -0.828125 6.691406
v 0.375000 -1.183594 6.691406
v 0.304688 -1.183594 2.726563
v 0.375000 -0.828125 6.691406
v 0.304688 -1.183594 2.726563
v 0.304688 -0.828125 2.726563
v -0.304688 -0.828125 2.726563
v -0.304688 -1.183594 2.726563
v -0.375000 -1.183594 6.691406
v -0.304688 -0.828125 2.726563
v -0.375000 -1.183594 6.691406
v -0.375000 -0.828125 6.691406
v 0.648438 -0.585938 1.945313
v 0.332031 -0.128906 2.210938
v 0.648438 -1.007813 2.187500
v 0.332031 -1.007813 2.714844
v 0.648438 -1.429688 1.945313
v 0.332031 -1.882813 2.210938
v 0.648438 -1.429688 1.460938
v 0.332031 -1.882813 1.195313
v 0.648438 -1.007813 1.214844
v 0.332031 -1.007813 0.691406
v 0.648438 -0.585938 1.460938
v 0.332031 -0.128906 1.195313
v 0.648438 -0.585938 1.945313
v 0.332031 -0.128906 2.210938
v 0.332031 -1.882813 1.195313
v -0.332031 -1.882813 1.195313
v 0.332031 -1.007813 0.691406
v -0.332031 -1.007813 0.691406
v 0.332031 -0.128906 1.195313
v -0.332031 -0.128906 1.195313
v 0.332031 -0.128906 2.210938
v -0.332031 -0.128906 2.210938
v 0.332031 -1.007813 2.714844
v -0.332031 -1.007813 2.714844
v 0.332031 -1.882813 2.210938
v -0.332031 -1.882813 2.210938
v 0.332031 -1.882813 1.195313
v -0.332031 -1.882813 1.195313
v 0.304688 0.109375 -2.500000
v 0.277344 -0.667969 -1.449219
v 0.320313 -1.007813 -2.699219
v 0.277344 -1.347656 -1.449219
v 0.304688 -2.128906 -2.500000
v -0.332031 -0.128906 2.210938
v -0.648438 -0.585938 1.945313
v -0.332031 -1.007813 2.714844
v -0.648438 -1.007813 2.187500
v -0.332031 -1.882813 2.210938
v -0.648438 -1.429688 1.945313
v -0.332031 -1.882813 1.195313
v -0.648438 -1.429688 1.460938
v -0.332031 -1.007813 0.691406
v -0.648438 -1.007813 1.214844
v -0.332031 -0.128906 1.195313
v -0.648438 -0.585938 1.460938
v -0.332031 -0.128906 2.210938
v -0.648438 -0.585938 1.945313
v 0.292969 -0.542969 2.414063
v -0.292969 -0.542969 2.414063
v 0.375000 -0.261719 8.878906
v -0.375000 -0.261719 8.878906
v -0.292969 -0.542969 2.414063
v -0.292969 -1.468750 2.414063
v -0.375000 -0.261719 8.878906
v -0.375000 -1.753906 8.878906
v 0.304688 0.109375 -2.500000
v 0.320313 -1.007813 -2.699219
v -0.304688 0.109375 -2.500000
v -0.320313 -1.007813 -2.699219
v -0.375000 -1.753906 8.878906
v -0.292969 -1.468750 2.414063
v 0.375000 -1.753906 8.878906
v 0.292969 -1.468750 2.414063
v 0.292969 -0.542969 2.414063
v 0.375000 -0.261719 8.878906
v 0.292969 -1.468750 2.414063
v 0.375000 -1.753906 8.878906
v 0.375000 -1.753906 8.878906
v 0.375000 -0.261719 8.878906
v -0.375000 -1.753906 8.878906
v -0.375000 -0.261719 8.878906
v -0.277344 -0.667969 -1.449219
v -0.277344 -1.347656 -1.449219
v -0.277344 -0.667969 0.914063
v -0.277344 -1.347656 0.914063
v 0.277344 -0.667969 -1.449219
v -0.277344 -0.667969 -1.449219
v 0.277344 -0.667969 0.914063
v -0.277344 -0.667969 0.914063
v 0.277344 -1.347656 -1.449219
v 0.277344 -0.667969 -1.449219
v 0.277344 -1.347656 0.914063
v 0.277344 -0.667969 0.914063
v -0.277344 -1.347656 -1.449219
v 0.277344 -1.347656 -1.449219
v -0.277344 -1.347656 0.914063
v 0.277344 -1.347656 0.914063
v -0.277344 -1.347656 -1.449219
v -0.277344 -0.667969 -1.449219
v -0.320313 -1.007813 -2.699219
v -0.304688 0.109375 -2.500000
v 0.304688 0.109375 -2.500000
v -0.304688 0.109375 -2.500000
v 0.277344 -0.667969 -1.449219
v -0.277344 -0.667969 -1.449219
v -0.304688 -2.128906 -2.500000
v 0.304688 -2.128906 -2.500000
v -0.277344 -1.347656 -1.449219
v 0.277344 -1.347656 -1.449219
v -0.304688 -2.128906 -2.500000
v -0.320313 -1.007813 -2.699219
v 0.304688 -2.128906 -2.500000
v 0.320313 -1.007813 -2.699219
v -0.320313 -1.007813 -2.699219
v -0.304688 -2.128906 -2.500000
v -0.277344 -1.347656 -1.449219
v -0.648438 -1.429688 1.460938
v -0.648438 -1.429688 1.945313
v -0.648438 -1.007813 2.187500
v -0.648438 -1.429688 1.460938
v -0.648438 -1.007813 2.187500
v -0.648438 -0.585938 1.945313
v -0.648438 -1.429688 1.460938
v -0.648438 -0.585938 1.945313
v -0.648438 -0.585938 1.460938
v -0.648438 -1.429688 1.460938
v -0.648438 -0.585938 1.460938
v -0.648438 -1.007813 1.214844
v 0.648438 -1.007813 1.214844
v 0.648438 -0.585938 1.460938
v 0.648438 -0.585938 1.945313
v 0.648438 -1.007813 1.214844
v 0.648438 -0.585938 1.945313
v 0.648438 -1.007813 2.187500
v 0.648438 -1.007813 1.214844
v 0.648438 -1.007813 2.187500
v 0.648438 -1.429688 1.945313
v 0.648438 -1.007813 1.214844
v 0.648438 -1.429688 1.945313
v 0.648438 -1.429688 1.460938
# 226 vertices

vt 0.670441 0.992096
vt 0.832214 0.992096
vt 0.832214 0.414887
vt 0.503693 0.992096
vt 0.659302 0.992096
vt 0.659302 0.414887
vt 0.995544 0.992096
vt 0.836517 0.992096
vt 0.995606 0.414887
vt 0.253662 0.989594
vt 0.253662 0.852661
vt 0.440765 0.852661
vt 0.440765 0.989594
vt 0.538330 0.926422
vt 0.556427 0.993347
vt 0.545410 0.900299
vt 0.581574 0.900299
vt 0.538330 0.874176
vt 0.556427 0.807251
vt 0.524200 0.874176
vt 0.506134 0.807251
vt 0.517151 0.900299
vt 0.480957 0.900299
vt 0.524200 0.926422
vt 0.506134 0.993347
vt 0.205994 0.045776
vt 0.003998 0.045776
vt 0.205994 0.005402
vt 0.003998 0.005402
vt 0.205994 0.082947
vt 0.003998 0.082947
vt 0.205994 0.102387
vt 0.003998 0.102387
vt 0.566101 0.763092
vt 0.449616 0.693390
vt 0.566101 0.611633
vt 0.449616 0.538513
vt 0.566101 0.460175
vt 0.909607 0.009979
vt 0.942688 0.009979
vt 0.911041 0.491943
vt 0.941284 0.491943
vt 0.899048 0.008850
vt 0.843536 0.008850
vt 0.831848 0.491943
vt 0.831848 0.554230
vt 0.910736 0.554230
vt 0.472260 0.193115
vt 0.472260 0.117279
vt 0.230255 0.193115
vt 0.230255 0.117279
vt 0.667206 0.805695
vt 0.616028 0.805695
vt 0.590424 0.898987
vt 0.616028 0.992279
vt 0.667206 0.992279
vt 0.692810 0.898987
# 57 texture coordinates

vn -0.999977 0.003556 -0.005781
vn 0.999977 -0.003557 -0.005783
vn 0.000000 0.797248 0.603652
vn 0.000000 0.467370 -0.884062
vn 0.000000 0.214959 0.976623
vn -1.000000 0.000000 0.000000
vn 0.999977 -0.001459 -0.006628
vn 0.000000 0.523909 0.851774
vn 0.999977 -0.005458 -0.004133
vn 0.000000 -0.797248 0.603652
vn 0.000000 -0.467138 -0.884185
vn 0.000000 -0.214604 0.976701
vn 1.000000 0.000000 0.000000
vn -0.999977 0.001456 -0.006628
vn 0.000000 -0.523909 0.851774
vn -0.999977 0.005456 -0.004131
vn 0.999843 0.000000 -0.017731
vn -0.999843 0.000000 -0.017731
vn 0.822700 0.283025 0.493013
vn 0.853476 0.097777 0.511876
vn 0.853215 -0.098481 0.512178
vn 0.852921 -0.394657 0.341719
vn 0.852049 -0.494772 0.170919
vn 0.851950 -0.495284 -0.169927
vn 0.852309 -0.396110 -0.341563
vn 0.852610 -0.098042 -0.513269
vn 0.852197 0.099060 -0.513758
vn 0.852703 0.394814 -0.342080
vn 0.853776 0.491858 -0.170713
vn 0.822192 0.569210 0.000000
vn 0.000000 -0.499053 -0.866571
vn 0.000000 -0.189063 -0.981965
vn 0.000000 0.187173 -0.982327
vn 0.000000 0.754516 -0.656282
vn 0.000000 0.944629 -0.328141
vn 0.000000 0.944629 0.328141
vn 0.000000 0.754515 0.656282
vn 0.000000 0.187173 0.982327
vn 0.000000 -0.189063 0.981965
vn 0.000000 -0.755417 0.655244
vn 0.000000 -0.944809 0.327622
vn 0.000000 -1.000000 0.000000
vn 0.999450 0.008252 0.032113
vn 0.999439 0.004126 0.033234
vn 0.999460 0.000010 0.032864
vn 0.999439 -0.004111 0.033238
vn 0.999450 -0.008222 0.032121
vn -0.822615 0.282812 0.493277
vn -0.853448 0.097546 0.511968
vn -0.853097 -0.098474 0.512375
vn -0.852794 -0.394769 0.341908
vn -0.852073 -0.494646 0.171163
vn -0.852049 -0.494772 -0.170919
vn -0.851788 -0.396575 -0.342324
vn -0.851961 -0.099996 -0.513967
vn -0.852992 0.097337 -0.512768
vn -0.853405 0.394185 -0.341054
vn -0.853646 0.492545 -0.169377
vn -0.822192 0.569210 0.000000
vn 0.000000 0.999055 -0.043463
vn -0.999920 0.000000 -0.012688
vn 0.000000 0.175552 -0.984470
vn 0.000000 -0.999029 -0.044066
vn 0.999920 0.000000 -0.012688
vn 0.000000 0.000000 1.000000
vn 0.000000 1.000000 0.000000
vn -0.999410 0.000000 0.034355
vn -0.999439 0.004126 0.033234
vn -0.999450 0.008252 0.032113
vn 0.000000 0.803927 0.594727
vn 0.000000 -0.802499 0.596654
vn 0.000000 -0.174960 -0.984576
vn -0.999450 -0.008222 0.032121
# 73 normals

g BFan
usemtl BFan
s 1
f 97/14/19 98/15/19 99/16/20
f 100/17/21 99/16/20 98/15/19
f 99/16/20 100/17/21 101/18/22
f 102/19/23 101/18/22 100/17/21
f 101/18/22 102/19/23 103/20/24
f 104/21/25 103/20/24 102/19/23
f 103/20/24 104/21/25 105/22/26
f 106/23/27 105/22/26 104/21/25
f 105/22/26 106/23/27 107/24/28
f 108/25/29 107/24/28 106/23/27
f 107/24/28 108/25/29 109/14/30
f 110/15/30 109/14/30 108/25/29
f 111/26/31 112/27/31 113/28/32
f 114/29/33 113/28/32 112/27/31
f 113/28/32 114/29/33 115/26/34
f 116/27/35 115/26/34 114/29/33
f 115/26/34 116/27/35 117/30/36
f 118/31/37 117/30/36 116/27/35
f 117/30/36 118/31/37 119/32/38
f 120/33/39 119/32/38 118/31/37
f 119/32/38 120/33/39 121/30/40
f 122/31/41 121/30/40 120/33/39
f 121/30/40 122/31/41 123/26/42
f 124/27/42 123/26/42 122/31/41
f 125/34/43 126/35/44 127/36/45
f 128/37/46 127/36/45 126/35/44
f 127/36/45 128/37/46 129/38/47
f 130/15/48 131/14/48 132/17/49
f 133/16/50 132/17/49 131/14/48
f 132/17/49 133/16/50 134/19/51
f 135/18/52 134/19/51 133/16/50
f 134/19/51 135/18/52 136/21/53
f 137/20/54 136/21/53 135/18/52
f 136/21/53 137/20/54 138/23/55
f 139/22/56 138/23/55 137/20/54
f 138/23/55 139/22/56 140/25/57
f 141/24/58 140/25/57 139/22/56
f 140/25/57 141/24/58 142/15/59
f 143/14/59 142/15/59 141/24/58
f 144/39/60 145/40/60 146/41/60
f 147/42/60 146/41/60 145/40/60
f 148/43/61 149/44/61 150/41/61
f 151/45/61 150/41/61 149/44/61
f 152/34/62 153/36/62 154/34/62
f 155/36/62 154/34/62 153/36/62
f 156/42/63 157/40/63 158/41/63
f 159/39/63 158/41/63 157/40/63
f 160/43/64 161/41/64 162/44/64
f 163/45/64 162/44/64 161/41/64
f 164/45/65 165/41/65 166/46/65
f 167/47/65 166/46/65 165/41/65
f 168/48/6 169/49/6 170/50/6
f 171/51/6 170/50/6 169/49/6
f 172/48/66 173/48/66 174/50/66
f 175/50/66 174/50/66 173/48/66
f 176/49/13 177/48/13 178/51/13
f 179/50/13 178/51/13 177/48/13
f 180/49/42 181/49/42 182/51/42
f 183/51/42 182/51/42 181/49/42
f 184/37/67 185/35/68 186/36/68
f 187/34/69 186/36/68 185/35/68
f 188/34/70 189/34/70 190/35/70
f 191/35/70 190/35/70 189/34/70
f 192/38/71 193/38/71 194/37/71
f 195/37/71 194/37/71 193/38/71
f 196/38/72 197/36/72 198/38/72
f 199/36/72 198/38/72 197/36/72
f 200/36/73 201/38/73 202/37/73
f 203/52/6 204/53/6 205/54/6
f 206/52/6 207/54/6 208/55/6
f 209/52/6 210/55/6 211/56/6
f 212/52/6 213/56/6 214/57/6
f 215/57/13 216/56/13 217/55/13
f 218/57/13 219/55/13 220/54/13
f 221/57/13 222/54/13 223/53/13
f 224/57/13 225/53/13 226/52/13
# 76 triangles in group

g FanElem
usemtl FanElem
f 1/1/1 2/2/1 3/3/1
f 4/1/2 5/2/2 6/3/2
f 7/4/3 8/5/3 9/5/3
f 10/4/3 11/5/3 12/4/3
f 13/4/4 14/4/4 15/6/4
f 16/4/4 17/6/4 18/6/4
f 19/7/5 20/7/5 21/8/5
f 22/7/5 23/8/5 24/8/5
f 25/6/6 26/5/6 27/4/6
f 28/9/7 29/8/7 30/7/7
f 31/1/8 32/1/8 33/2/8
f 34/1/8 35/2/8 36/2/8
f 37/7/6 38/8/6 39/9/6
f 40/2/6 41/1/6 42/3/6
f 43/4/9 44/5/9 45/6/9
f 46/4/10 47/5/10 48/5/10
f 49/4/10 50/5/10 51/4/10
f 52/4/11 53/4/11 54/6/11
f 55/4/11 56/6/11 57/6/11
f 58/7/12 59/7/12 60/8/12
f 61/7/12 62/8/12 63/8/12
f 64/6/13 65/5/13 66/4/13
f 67/9/14 68/8/14 69/7/14
f 70/1/15 71/1/15 72/2/15
f 73/1/15 74/2/15 75/2/15
f 76/7/13 77/8/13 78/9/13
f 79/2/13 80/1/13 81/3/13
f 82/4/16 83/5/16 84/6/16
f 85/10/17 86/11/17 87/12/17
f 88/10/17 89/12/17 90/13/17
f 91/13/18 92/12/18 93/11/18
f 94/13/18 95/11/18 96/10/18
# 32 triangles in group

# 108 triangles total

